<?xml version="1.0" encoding="utf-8"?>
<!-- Generator: Adobe Illustrator 24.2.1, SVG Export Plug-In . SVG Version: 6.00 Build 0)  -->
<svg version="1.1" id="Layer_1" xmlns="http://www.w3.org/2000/svg" xmlns:xlink="http://www.w3.org/1999/xlink" x="0px" y="0px"
	 viewBox="0 0 561.1 148.9" style="enable-background:new 0 0 561.1 148.9;" xml:space="preserve">
<style type="text/css">
	.st0{fill:#2C71B9;}
	.st1{fill:#FFFFFF;}
</style>
<polygon class="st0" points="560.6,72.2 560.6,0.2 488.5,0.2 "/>
<g>
	<path class="st1" d="M54.5,67.5c5.2-1.8,9.2-4.5,11.9-8.1c2.7-3.6,4.1-8,4.1-13.3c0-8.7-2.9-15.3-8.7-19.8
		c-5.8-4.6-14.1-6.8-24.8-6.8H1.4v99.9h37.7c11.3,0,20-2.4,26-7.1c6-4.8,9.1-11.6,9.1-20.5c0-6.3-1.7-11.5-5-15.6
		C65.9,72,61,69.1,54.5,67.5 M36.2,33.2c6,0,10.6,1.2,13.8,3.6c3.2,2.4,4.9,5.9,4.9,10.4c0,4.6-1.6,8-4.9,10.4
		c-3.2,2.4-7.8,3.6-13.8,3.6H17.1v-28H36.2z M38.1,105.4h-21v-31h21c6.5,0,11.4,1.3,14.9,4c3.5,2.7,5.2,6.5,5.2,11.4
		c0,4.9-1.7,8.8-5.2,11.5C49.5,104.1,44.6,105.4,38.1,105.4 M121.8,45.2c-5.4,0-10.6,0.7-15.6,2.2c-5,1.5-9.3,3.6-13.1,6.5l7.3,11.1
		c3.2-2.2,6.7-3.9,10.3-5.1c3.6-1.2,7.2-1.8,10.8-1.8c5.1,0,9.1,1.2,11.8,3.5c2.8,2.3,4.1,5.7,4.1,10.2v2.9H124
		c-11.5,0-20.2,2-26.1,6.1C92,85,89,90.9,89,98.6c0,6.9,2.4,12.3,7.1,16.4c4.8,4.1,11.1,6.1,19,6.1c5.5,0,10.2-1.1,14.1-3.4
		c3.9-2.2,6.8-5.4,8.8-9.6l0.3,0.4v10.7h13.8V70.2c0-8.1-2.6-14.3-7.7-18.6S131.7,45.2,121.8,45.2 M118.7,109.2
		c-4.4,0-7.9-1-10.5-3.1c-2.6-2-3.9-4.8-3.9-8.2c0-7.7,6.9-11.6,20.8-11.6h12.4v5c0,5.7-1.6,10.1-4.9,13.2
		C129.3,107.6,124.7,109.2,118.7,109.2 M213.6,104.9c-2.1,1.1-4,2-5.6,2.5c-1.7,0.5-3.4,0.8-5.1,0.8c-2.9,0-5.2-0.9-6.8-2.7
		c-1.6-1.8-2.4-4.5-2.4-8V58.9h20.7V47.1h-20.7V26.2h-14.8v20.8h-13.6v11.8h13.6v40.7c0,6.9,1.9,12.3,5.6,16
		c3.8,3.7,9.1,5.6,16.1,5.6c4,0,7.4-0.4,10.3-1.3c2.9-0.9,5.8-2.3,8.8-4.3L213.6,104.9z M275.1,104.9c-2.1,1.1-4,2-5.6,2.5
		c-1.7,0.5-3.4,0.8-5.1,0.8c-3,0-5.2-0.9-6.8-2.7c-1.6-1.8-2.4-4.5-2.4-8V58.9h20.7V47.1h-20.7V26.2h-14.8v20.8h-13.6v11.8h13.6
		v40.7c0,6.9,1.9,12.3,5.6,16c3.8,3.7,9.1,5.6,16.1,5.6c4,0,7.4-0.4,10.3-1.3c2.9-0.9,5.8-2.3,8.8-4.3L275.1,104.9z M359.6,83
		c0-7.5-1.5-14.1-4.4-19.8c-2.9-5.7-7-10.1-12.3-13.3c-5.3-3.1-11.6-4.7-18.7-4.7c-7.1,0-13.4,1.6-18.7,4.7
		c-5.3,3.1-9.5,7.6-12.4,13.3c-3,5.7-4.4,12.3-4.4,19.8c0,11.7,3.4,21,10.3,27.8s16.2,10.3,28.1,10.3c12.7,0,22.5-3.2,29.5-9.7
		l-7.8-10.4c-6.2,4.9-13.4,7.3-21.7,7.3c-6.6,0-11.9-1.8-15.9-5.4c-4-3.6-6.4-8.6-7.2-15.1h55.6V83z M324.2,57.8
		c5.3,0,9.8,1.7,13.3,5.1c3.6,3.4,5.9,8.1,6.9,14h-40.4c1-5.9,3.2-10.6,6.7-14C314.3,59.5,318.8,57.8,324.2,57.8 M411.9,45.2
		c-4.7,0-8.7,1.3-12.1,3.9c-3.4,2.6-6,6.2-7.7,11v-13h-14v72.2H393V76.6c0-5.7,1.6-10.1,4.8-13.2c3.2-3.1,7.3-4.6,12.3-4.6
		c2.7,0,5.4,0.4,8.3,1.1l1.9-13.6C418.4,45.6,415.6,45.2,411.9,45.2 M490.1,47.1L469.6,100l-21.3-52.9h-16.8l30.5,71.1l-3.7,9.1
		c-1.2,2.9-2.9,5-4.9,6.3c-2,1.2-4.8,1.9-8.3,1.9h-7.8v12.4h11.1c6.2,0,11.1-1.4,14.6-4.1c3.6-2.7,6.6-7.1,9.1-13.2l34.2-83.5H490.1
		z"/>
</g>
</svg>
