<?xml version="1.0" encoding="UTF-8"?>
<svg id="Layer_1" data-name="Layer 1" xmlns="http://www.w3.org/2000/svg" viewBox="150 360 1650 340">
  <g>
    <path d="m315.79,428.43l-16.57,35.98c-21.47-9.86-46.87-.46-56.76,21.01-9.89,21.48-.49,46.9,20.98,56.79l-19.3,41.93c21.48,9.89,46.91.49,56.79-20.99,9.89-21.48.49-46.9-20.98-56.79l19.26-41.95c42.86,19.76,61.63,70.88,41.88,113.75-19.75,42.89-70.71,61.71-113.6,41.95l-16.64,36.14c62.81,28.93,137.45,1.36,166.38-61.45,28.93-62.81,1.36-137.45-61.45-166.38Z" fill="#99eac8"/>
    <path d="m244.15,584.14c-42.89-19.75-61.71-70.87-41.95-113.75,19.75-42.89,70.71-61.71,113.6-41.95l16.64-36.14c-62.81-28.93-137.45-1.36-166.38,61.45-28.93,62.81-1.36,137.45,61.45,166.38l16.64-35.98Z" fill="#99eac8"/>
  </g>
  <g>
    <path d="m658.3,416.01l-103.94,175.34h100.32v38.56h-171.72l105.14-175.34h-101.23v-38.56h171.42Z" fill="#fff"/>
    <path d="m823.99,564.54h-119.6c2.11,19.28,19.28,33.14,41.27,33.14,18.68,0,31.63-8.74,37.96-21.09l37.36,3.92c-8.44,29.83-38.86,52.42-75.62,52.42-48.81,0-83.75-32.54-83.75-81.34s33.74-82.55,81.34-82.55,83.15,32.23,81.04,95.5Zm-119.9-29.83h76.52c-.9-18.38-16.27-31.33-37.66-31.33s-37.36,12.95-38.86,31.33Z" fill="#fff"/>
    <path d="m884.24,492.53c8.13-14.46,22.29-23.5,47.3-20.49l-.3,36.76c-29.52-3.62-46.09,6.33-46.09,31.03v90.08h-42.78v-157.56h34.95l6.93,20.19Z" fill="#fff"/>
    <path d="m935.76,550.98c0-47.3,35.55-81.94,84.96-81.94s85.26,34.65,85.26,81.94-35.85,81.94-85.26,81.94-84.96-34.04-84.96-81.94Zm128.64,0c0-25.31-18.38-43.38-43.68-43.38s-43.68,18.08-43.68,43.38,18.68,43.38,43.68,43.38,43.68-18.38,43.68-43.38Z" fill="#fff"/>
    <path d="m1115.01,561.52h44.89c.6,22.29,15.97,34.34,35.85,34.34,18.38,0,29.22-9.34,29.22-22.29,0-38.26-102.43-30.43-102.43-100.32,0-35.55,28.32-60.25,69.89-60.25,43.68,0,72.3,27.42,73.21,67.79l-43.98,1.2c-.9-20.49-12.05-31.93-28.62-31.93-14.76,0-25.61,8.13-25.61,21.39,0,43.08,103.64,28.32,103.64,99.42,0,38.86-32.84,62.06-75.62,62.06-52.42,0-79.84-34.95-80.44-71.4Z" fill="#fff"/>
    <path d="m1448.81,472.35l-89.18,226.85h-44.59l26.21-67.79-65.98-159.07h46.4c28.32,69.89,38.26,97.61,41.57,116.89,3.31-19.28,12.65-46.4,40.07-116.89h45.49Z" fill="#fff"/>
    <path d="m1616.61,538.03v91.89h-43.38v-85.26c0-30.43-16.87-38.86-33.44-38.86-20.79,0-35.25,12.95-35.25,40.37v83.75h-43.38v-157.56h36.15l6.63,22.59c9.94-16.27,25.91-25.91,49.11-25.91,33.14,0,63.57,20.79,63.57,68.99Z" fill="#fff"/>
    <path d="m1633.18,550.98c0-47.3,32.84-81.94,84.66-81.94,18.38,0,34.95,5.12,47.6,15.06v40.97c-11.45-10.85-26.21-17.17-43.38-17.17-26.51,0-46.09,18.68-46.09,43.38s19.58,43.38,46.09,43.38c17.17,0,31.93-6.63,43.38-17.47v40.97c-12.65,9.94-29.22,15.06-47.6,15.06-51.82,0-84.66-34.34-84.66-82.25Z" fill="#fff"/>
  </g>
</svg>
